# xmcd
#
# Track frame offsets:
#	150
#	17949
#	34498
#	50082
#	66358
#	82320
#	99344
#	116002
#	132513
#	147753
#	164233
#	185230
#	201398
#	215900
#
# Disc length: 3081 seconds
#
# Revision: 0
# Processed by: cddbd v1.5.2PL0 Copyright (c) Steve Scherf et al.
# Submitted via: EasyCDDAExtractor 15.3.0.1
#
DISCID=f00c070e
DTITLE=Darko Domijan - Sve Najbolje
DYEAR=2001
DGENRE=Alternative
TTITLE0=Zingarella
TTITLE1=Ruze u snijegu
TTITLE2=Sedam suza
TTITLE3=Kad dunje pozute
TTITLE4=Jelena je bila lijepa
TTITLE5=Kad se srce nekom da
TTITLE6=Hiljadu dana, hiljadu tuga
TTITLE7=Ulica jorgovana
TTITLE8=Dugo ce, dugo boljeti
TTITLE9=Ja placam nocas
TTITLE10=Naucit' cu te, mala
TTITLE11=Lana, moja Lana
TTITLE12=Zeno moja, srce moje
TTITLE13=14. Mirisu ti kose
EXTD=
EXTT0=
EXTT1=
EXTT2=
EXTT3=
EXTT4=
EXTT5=
EXTT6=
EXTT7=
EXTT8=
EXTT9=
EXTT10=
EXTT11=
EXTT12=
EXTT13=
PLAYORDER=
